<svg width="511" height="512" viewBox="0 0 511 512" fill="none" xmlns="http://www.w3.org/2000/svg">
<path d="M237.4 0.332184C235.5 0.532196 229.6 1.23221 224.4 1.83218C181.4 6.6322 137.2 24.5322 100.6 51.9322C88.7 60.8322 66.7 82.1322 56.9 94.2322C33.2 123.432 13.9 162.732 6 198.232C1.1 220.032 0 230.732 0 255.732C0 280.732 1.1 291.432 6 313.232C13.9 348.732 33.2 388.132 56.9 417.232C66.1 428.632 84.3 446.632 95.6 455.632C124.3 478.532 163.1 497.332 197.9 505.132C218.8 509.832 231.3 511.132 255.4 511.132C297.9 511.132 330.5 503.632 367.9 485.232C409.6 464.832 442.9 435.632 468.9 396.732C484.2 373.932 498.9 339.832 504.8 313.232C509.7 291.432 510.8 280.732 510.8 255.732C510.8 230.732 509.7 220.032 504.8 198.232C496.9 162.732 477.6 123.332 453.9 94.2322C444.7 82.8322 426.5 64.8322 415.2 55.8322C380.4 28.0322 337.5 9.33218 293.2 2.6322C280.6 0.732208 246.1 -0.667816 237.4 0.332184ZM272.9 78.2322C299.8 83.9322 322.1 102.332 333.2 127.932C337.8 138.732 339.6 148.232 339.6 161.732C339.5 185.332 330.8 205.432 313.5 221.932C304.3 230.832 294.4 236.932 283.1 240.832C231.6 258.532 177 223.732 171.4 169.532C167 126.832 195.6 87.3322 237.5 78.2322C246 76.4322 264.2 76.4322 272.9 78.2322ZM325.9 289.532C351.8 296.732 371.3 313.032 382.3 336.932C392.3 358.432 392.8 379.232 383.7 392.532C376.2 403.432 349.5 421.232 325.9 431.032C283.7 448.432 230.4 448.832 187.4 432.032C163.9 422.832 133.4 402.932 126.7 392.432C118.9 380.132 118.5 364.032 125.3 344.032C135.4 314.632 162.4 292.532 193.9 287.832C197.2 287.332 226.5 287.032 258.9 287.132C316.5 287.332 318.1 287.332 325.9 289.532Z" fill="black"/>
</svg>
